<?xml version="1.0" encoding="UTF-8" standalone="no"?>
<!-- Created with Inkscape (http://www.inkscape.org/) -->

<svg
   xmlns:dc="http://purl.org/dc/elements/1.1/"
   xmlns:cc="http://creativecommons.org/ns#"
   xmlns:rdf="http://www.w3.org/1999/02/22-rdf-syntax-ns#"
   xmlns:svg="http://www.w3.org/2000/svg"
   xmlns="http://www.w3.org/2000/svg"
   xmlns:sodipodi="http://sodipodi.sourceforge.net/DTD/sodipodi-0.dtd"
   xmlns:inkscape="http://www.inkscape.org/namespaces/inkscape"
   width="100"
   height="100"
   viewBox="0 0 26.458333 26.458334"
   version="1.1"
   id="svg8"
   inkscape:export-filename="C:\temp\bitmap.png"
   inkscape:export-xdpi="96"
   inkscape:export-ydpi="96"
   inkscape:version="0.92.3 (2405546, 2018-03-11)"
   sodipodi:docname="waves_texture_inkscape.svg">
  <defs
     id="defs2" />
  <sodipodi:namedview
     id="base"
     pagecolor="#ffffff"
     bordercolor="#666666"
     borderopacity="1.0"
     inkscape:pageopacity="0.0"
     inkscape:pageshadow="2"
     inkscape:zoom="5.6"
     inkscape:cx="22.893739"
     inkscape:cy="45.428808"
     inkscape:document-units="px"
     inkscape:current-layer="layer1"
     showgrid="false"
     units="px"
     showguides="true"
     inkscape:guide-bbox="true"
     inkscape:measure-start="0,0"
     inkscape:measure-end="0,0"
     inkscape:window-width="1920"
     inkscape:window-height="1001"
     inkscape:window-x="-9"
     inkscape:window-y="-9"
     inkscape:window-maximized="1">
    <sodipodi:guide
       position="0,0"
       orientation="1,0"
       id="guide817"
       inkscape:locked="true"
       inkscape:label=""
       inkscape:color="rgb(0,0,255)" />
    <sodipodi:guide
       position="26.458333,0"
       orientation="1,0"
       id="guide819"
       inkscape:locked="true"
       inkscape:label=""
       inkscape:color="rgb(0,0,255)" />
    <sodipodi:guide
       position="0,26.458333"
       orientation="0,1"
       id="guide821"
       inkscape:locked="true"
       inkscape:label=""
       inkscape:color="rgb(0,0,255)" />
    <sodipodi:guide
       position="13.229167,13.229167"
       orientation="1,0"
       id="guide823"
       inkscape:locked="true"
       inkscape:label=""
       inkscape:color="rgb(0,0,255)" />
    <sodipodi:guide
       position="26.458333,0"
       orientation="0,1"
       id="guide928"
       inkscape:locked="true"
       inkscape:label=""
       inkscape:color="rgb(0,0,255)" />
  </sodipodi:namedview>
  <metadata
     id="metadata5">
    <rdf:RDF>
      <cc:Work
         rdf:about="">
        <dc:format>image/svg+xml</dc:format>
        <dc:type
           rdf:resource="http://purl.org/dc/dcmitype/StillImage" />
        <dc:title></dc:title>
      </cc:Work>
    </rdf:RDF>
  </metadata>
  <g
     inkscape:label="Layer 1"
     inkscape:groupmode="layer"
     id="layer1"
     transform="translate(0,-270.54165)">
    <path
       style="fill:#00e5ff;fill-opacity:1;stroke:none;stroke-width:0.3318519;stroke-miterlimit:4;stroke-dasharray:none;stroke-opacity:1;paint-order:stroke fill markers"
       d="m -1.5653432,269.21541 v 8.32213 H 27.769292 v -7.99804 a 1.9856656,2.4425261 0 0 1 -1.289693,0.58585 1.9856656,2.4425261 0 0 1 -1.471888,-0.80802 1.9856656,2.4425261 0 0 1 -1.472462,0.80802 1.9856656,2.4425261 0 0 1 -1.471888,-0.80802 1.9856656,2.4425261 0 0 1 -1.473034,0.80802 1.9856656,2.4425261 0 0 1 -1.471888,-0.80802 1.9856656,2.4425261 0 0 1 -1.472461,0.80802 1.9856656,2.4425261 0 0 1 -1.471889,-0.80802 1.9856656,2.4425261 0 0 1 -1.472461,0.80802 1.9856656,2.4425261 0 0 1 -1.472461,-0.80802 1.9856656,2.4425261 0 0 1 -1.47246,0.80802 1.9856656,2.4425261 0 0 1 -1.471889,-0.80802 1.9856656,2.4425261 0 0 1 -1.472461,0.80802 1.9856656,2.4425261 0 0 1 -1.471888,-0.80802 1.9856656,2.4425261 0 0 1 -1.473034,0.80802 1.9856656,2.4425261 0 0 1 -1.471889,-0.80802 1.9856656,2.4425261 0 0 1 -1.472461,0.80802 1.9856656,2.4425261 0 0 1 -1.471888,-0.80802 1.9856656,2.4425261 0 0 1 -1.4724613,0.80802 1.9856656,2.4425261 0 0 1 -1.5440789,-0.90994 z"
       id="rect825-8"
       inkscape:connector-curvature="0" />
    <path
       style="fill:#001bff;fill-opacity:1;stroke:none;stroke-width:0.3318519;stroke-miterlimit:4;stroke-dasharray:none;stroke-opacity:1;paint-order:stroke fill markers"
       d="m -1.5653432,271.99544 v 8.32213 H 27.769292 v -7.99804 a 1.9856656,2.4425261 0 0 1 -1.289693,0.58585 1.9856656,2.4425261 0 0 1 -1.471888,-0.80802 1.9856656,2.4425261 0 0 1 -1.472462,0.80802 1.9856656,2.4425261 0 0 1 -1.471888,-0.80802 1.9856656,2.4425261 0 0 1 -1.473034,0.80802 1.9856656,2.4425261 0 0 1 -1.471888,-0.80802 1.9856656,2.4425261 0 0 1 -1.472461,0.80802 1.9856656,2.4425261 0 0 1 -1.471889,-0.80802 1.9856656,2.4425261 0 0 1 -1.472461,0.80802 1.9856656,2.4425261 0 0 1 -1.472461,-0.80802 1.9856656,2.4425261 0 0 1 -1.47246,0.80802 1.9856656,2.4425261 0 0 1 -1.471889,-0.80802 1.9856656,2.4425261 0 0 1 -1.472461,0.80802 1.9856656,2.4425261 0 0 1 -1.4718884,-0.80802 1.9856656,2.4425261 0 0 1 -1.4730341,0.80802 1.9856656,2.4425261 0 0 1 -1.4718884,-0.80802 1.9856656,2.4425261 0 0 1 -1.4724612,0.80802 1.9856656,2.4425261 0 0 1 -1.4718882,-0.80802 1.9856656,2.4425261 0 0 1 -1.472461,0.80802 1.9856656,2.4425261 0 0 1 -1.5440789,-0.90994 z"
       id="rect825"
       inkscape:connector-curvature="0" />
    <path
       inkscape:connector-curvature="0"
       id="path912"
       d="m -1.5653432,274.77547 v 8.32213 H 27.769292 v -7.99804 a 1.9856656,2.4425261 0 0 1 -1.289693,0.58585 1.9856656,2.4425261 0 0 1 -1.471888,-0.80802 1.9856656,2.4425261 0 0 1 -1.472462,0.80802 1.9856656,2.4425261 0 0 1 -1.471888,-0.80802 1.9856656,2.4425261 0 0 1 -1.473034,0.80802 1.9856656,2.4425261 0 0 1 -1.471888,-0.80802 1.9856656,2.4425261 0 0 1 -1.472461,0.80802 1.9856656,2.4425261 0 0 1 -1.471889,-0.80802 1.9856656,2.4425261 0 0 1 -1.472461,0.80802 1.9856656,2.4425261 0 0 1 -1.472461,-0.80802 1.9856656,2.4425261 0 0 1 -1.47246,0.80802 1.9856656,2.4425261 0 0 1 -1.471889,-0.80802 1.9856656,2.4425261 0 0 1 -1.472461,0.80802 1.9856656,2.4425261 0 0 1 -1.471888,-0.80802 1.9856656,2.4425261 0 0 1 -1.473034,0.80802 1.9856656,2.4425261 0 0 1 -1.471889,-0.80802 1.9856656,2.4425261 0 0 1 -1.472461,0.80802 1.9856656,2.4425261 0 0 1 -1.471888,-0.80802 1.9856656,2.4425261 0 0 1 -1.4724613,0.80802 1.9856656,2.4425261 0 0 1 -1.5440789,-0.90994 z"
       style="fill:#00e5ff;fill-opacity:1;stroke:none;stroke-width:0.3318519;stroke-miterlimit:4;stroke-dasharray:none;stroke-opacity:1;paint-order:stroke fill markers" />
    <path
       inkscape:connector-curvature="0"
       id="path914"
       d="m -1.5653432,277.5555 v 8.32213 H 27.769292 v -7.99804 a 1.9856656,2.4425261 0 0 1 -1.289693,0.58585 1.9856656,2.4425261 0 0 1 -1.471888,-0.80802 1.9856656,2.4425261 0 0 1 -1.472462,0.80802 1.9856656,2.4425261 0 0 1 -1.471888,-0.80802 1.9856656,2.4425261 0 0 1 -1.473034,0.80802 1.9856656,2.4425261 0 0 1 -1.471888,-0.80802 1.9856656,2.4425261 0 0 1 -1.472461,0.80802 1.9856656,2.4425261 0 0 1 -1.471889,-0.80802 1.9856656,2.4425261 0 0 1 -1.472461,0.80802 1.9856656,2.4425261 0 0 1 -1.472461,-0.80802 1.9856656,2.4425261 0 0 1 -1.47246,0.80802 1.9856656,2.4425261 0 0 1 -1.471889,-0.80802 1.9856656,2.4425261 0 0 1 -1.472461,0.80802 1.9856656,2.4425261 0 0 1 -1.4718884,-0.80802 1.9856656,2.4425261 0 0 1 -1.4730341,0.80802 1.9856656,2.4425261 0 0 1 -1.4718884,-0.80802 1.9856656,2.4425261 0 0 1 -1.4724612,0.80802 1.9856656,2.4425261 0 0 1 -1.4718882,-0.80802 1.9856656,2.4425261 0 0 1 -1.472461,0.80802 1.9856656,2.4425261 0 0 1 -1.5440789,-0.90994 z"
       style="fill:#001bff;fill-opacity:1;stroke:none;stroke-width:0.3318519;stroke-miterlimit:4;stroke-dasharray:none;stroke-opacity:1;paint-order:stroke fill markers" />
    <path
       style="fill:#00e5ff;fill-opacity:1;stroke:none;stroke-width:0.3318519;stroke-miterlimit:4;stroke-dasharray:none;stroke-opacity:1;paint-order:stroke fill markers"
       d="m -1.5653432,280.33553 v 8.32213 H 27.769292 v -7.99804 a 1.9856656,2.4425261 0 0 1 -1.289693,0.58585 1.9856656,2.4425261 0 0 1 -1.471888,-0.80802 1.9856656,2.4425261 0 0 1 -1.472462,0.80802 1.9856656,2.4425261 0 0 1 -1.471888,-0.80802 1.9856656,2.4425261 0 0 1 -1.473034,0.80802 1.9856656,2.4425261 0 0 1 -1.471888,-0.80802 1.9856656,2.4425261 0 0 1 -1.472461,0.80802 1.9856656,2.4425261 0 0 1 -1.471889,-0.80802 1.9856656,2.4425261 0 0 1 -1.472461,0.80802 1.9856656,2.4425261 0 0 1 -1.472461,-0.80802 1.9856656,2.4425261 0 0 1 -1.47246,0.80802 1.9856656,2.4425261 0 0 1 -1.471889,-0.80802 1.9856656,2.4425261 0 0 1 -1.472461,0.80802 1.9856656,2.4425261 0 0 1 -1.471888,-0.80802 1.9856656,2.4425261 0 0 1 -1.473034,0.80802 1.9856656,2.4425261 0 0 1 -1.471889,-0.80802 1.9856656,2.4425261 0 0 1 -1.472461,0.80802 1.9856656,2.4425261 0 0 1 -1.471888,-0.80802 1.9856656,2.4425261 0 0 1 -1.4724613,0.80802 1.9856656,2.4425261 0 0 1 -1.5440789,-0.90994 z"
       id="path916"
       inkscape:connector-curvature="0" />
    <path
       style="fill:#001bff;fill-opacity:1;stroke:none;stroke-width:0.3318519;stroke-miterlimit:4;stroke-dasharray:none;stroke-opacity:1;paint-order:stroke fill markers"
       d="m -1.5653432,283.11555 v 8.32213 H 27.769292 v -7.99804 a 1.9856656,2.4425261 0 0 1 -1.289693,0.58585 1.9856656,2.4425261 0 0 1 -1.471888,-0.80802 1.9856656,2.4425261 0 0 1 -1.472462,0.80802 1.9856656,2.4425261 0 0 1 -1.471888,-0.80802 1.9856656,2.4425261 0 0 1 -1.473034,0.80802 1.9856656,2.4425261 0 0 1 -1.471888,-0.80802 1.9856656,2.4425261 0 0 1 -1.472461,0.80802 1.9856656,2.4425261 0 0 1 -1.471889,-0.80802 1.9856656,2.4425261 0 0 1 -1.472461,0.80802 1.9856656,2.4425261 0 0 1 -1.472461,-0.80802 1.9856656,2.4425261 0 0 1 -1.47246,0.80802 1.9856656,2.4425261 0 0 1 -1.471889,-0.80802 1.9856656,2.4425261 0 0 1 -1.472461,0.80802 1.9856656,2.4425261 0 0 1 -1.4718884,-0.80802 1.9856656,2.4425261 0 0 1 -1.4730341,0.80802 1.9856656,2.4425261 0 0 1 -1.4718884,-0.80802 1.9856656,2.4425261 0 0 1 -1.4724612,0.80802 1.9856656,2.4425261 0 0 1 -1.4718882,-0.80802 1.9856656,2.4425261 0 0 1 -1.472461,0.80802 1.9856656,2.4425261 0 0 1 -1.5440789,-0.90994 z"
       id="path918"
       inkscape:connector-curvature="0" />
    <path
       inkscape:connector-curvature="0"
       id="path920"
       d="m -1.5653432,285.89558 v 8.32213 H 27.769292 v -7.99804 a 1.9856656,2.4425261 0 0 1 -1.289693,0.58585 1.9856656,2.4425261 0 0 1 -1.471888,-0.80802 1.9856656,2.4425261 0 0 1 -1.472462,0.80802 1.9856656,2.4425261 0 0 1 -1.471888,-0.80802 1.9856656,2.4425261 0 0 1 -1.473034,0.80802 1.9856656,2.4425261 0 0 1 -1.471888,-0.80802 1.9856656,2.4425261 0 0 1 -1.472461,0.80802 1.9856656,2.4425261 0 0 1 -1.471889,-0.80802 1.9856656,2.4425261 0 0 1 -1.472461,0.80802 1.9856656,2.4425261 0 0 1 -1.472461,-0.80802 1.9856656,2.4425261 0 0 1 -1.47246,0.80802 1.9856656,2.4425261 0 0 1 -1.471889,-0.80802 1.9856656,2.4425261 0 0 1 -1.472461,0.80802 1.9856656,2.4425261 0 0 1 -1.471888,-0.80802 1.9856656,2.4425261 0 0 1 -1.473034,0.80802 1.9856656,2.4425261 0 0 1 -1.471889,-0.80802 1.9856656,2.4425261 0 0 1 -1.472461,0.80802 1.9856656,2.4425261 0 0 1 -1.471888,-0.80802 1.9856656,2.4425261 0 0 1 -1.4724613,0.80802 1.9856656,2.4425261 0 0 1 -1.5440789,-0.90994 z"
       style="fill:#00e5ff;fill-opacity:1;stroke:none;stroke-width:0.3318519;stroke-miterlimit:4;stroke-dasharray:none;stroke-opacity:1;paint-order:stroke fill markers" />
    <path
       inkscape:connector-curvature="0"
       id="path922"
       d="m -1.5653432,288.67561 v 8.32213 H 27.769292 v -7.99804 a 1.9856656,2.4425261 0 0 1 -1.289693,0.58585 1.9856656,2.4425261 0 0 1 -1.471888,-0.80802 1.9856656,2.4425261 0 0 1 -1.472462,0.80802 1.9856656,2.4425261 0 0 1 -1.471888,-0.80802 1.9856656,2.4425261 0 0 1 -1.473034,0.80802 1.9856656,2.4425261 0 0 1 -1.471888,-0.80802 1.9856656,2.4425261 0 0 1 -1.472461,0.80802 1.9856656,2.4425261 0 0 1 -1.471889,-0.80802 1.9856656,2.4425261 0 0 1 -1.472461,0.80802 1.9856656,2.4425261 0 0 1 -1.472461,-0.80802 1.9856656,2.4425261 0 0 1 -1.47246,0.80802 1.9856656,2.4425261 0 0 1 -1.471889,-0.80802 1.9856656,2.4425261 0 0 1 -1.472461,0.80802 1.9856656,2.4425261 0 0 1 -1.4718884,-0.80802 1.9856656,2.4425261 0 0 1 -1.4730341,0.80802 1.9856656,2.4425261 0 0 1 -1.4718884,-0.80802 1.9856656,2.4425261 0 0 1 -1.4724612,0.80802 1.9856656,2.4425261 0 0 1 -1.4718882,-0.80802 1.9856656,2.4425261 0 0 1 -1.472461,0.80802 1.9856656,2.4425261 0 0 1 -1.5440789,-0.90994 z"
       style="fill:#001bff;fill-opacity:1;stroke:none;stroke-width:0.3318519;stroke-miterlimit:4;stroke-dasharray:none;stroke-opacity:1;paint-order:stroke fill markers" />
    <path
       inkscape:connector-curvature="0"
       id="path924"
       d="m -1.5653432,291.45564 v 8.32213 H 27.769292 v -7.99804 a 1.9856656,2.4425261 0 0 1 -1.289693,0.58585 1.9856656,2.4425261 0 0 1 -1.471888,-0.80802 1.9856656,2.4425261 0 0 1 -1.472462,0.80802 1.9856656,2.4425261 0 0 1 -1.471888,-0.80802 1.9856656,2.4425261 0 0 1 -1.473034,0.80802 1.9856656,2.4425261 0 0 1 -1.471888,-0.80802 1.9856656,2.4425261 0 0 1 -1.472461,0.80802 1.9856656,2.4425261 0 0 1 -1.471889,-0.80802 1.9856656,2.4425261 0 0 1 -1.472461,0.80802 1.9856656,2.4425261 0 0 1 -1.472461,-0.80802 1.9856656,2.4425261 0 0 1 -1.47246,0.80802 1.9856656,2.4425261 0 0 1 -1.471889,-0.80802 1.9856656,2.4425261 0 0 1 -1.472461,0.80802 1.9856656,2.4425261 0 0 1 -1.471888,-0.80802 1.9856656,2.4425261 0 0 1 -1.473034,0.80802 1.9856656,2.4425261 0 0 1 -1.471889,-0.80802 1.9856656,2.4425261 0 0 1 -1.472461,0.80802 1.9856656,2.4425261 0 0 1 -1.471888,-0.80802 1.9856656,2.4425261 0 0 1 -1.4724613,0.80802 1.9856656,2.4425261 0 0 1 -1.5440789,-0.90994 z"
       style="fill:#00e5ff;fill-opacity:1;stroke:none;stroke-width:0.3318519;stroke-miterlimit:4;stroke-dasharray:none;stroke-opacity:1;paint-order:stroke fill markers" />
    <path
       style="fill:#001bff;fill-opacity:1;stroke:none;stroke-width:0.3318519;stroke-miterlimit:4;stroke-dasharray:none;stroke-opacity:1;paint-order:stroke fill markers"
       d="m -1.5653432,294.23567 v 8.32213 H 27.769292 v -7.99804 a 1.9856656,2.4425261 0 0 1 -1.289693,0.58585 1.9856656,2.4425261 0 0 1 -1.471888,-0.80802 1.9856656,2.4425261 0 0 1 -1.472462,0.80802 1.9856656,2.4425261 0 0 1 -1.471888,-0.80802 1.9856656,2.4425261 0 0 1 -1.473034,0.80802 1.9856656,2.4425261 0 0 1 -1.471888,-0.80802 1.9856656,2.4425261 0 0 1 -1.472461,0.80802 1.9856656,2.4425261 0 0 1 -1.471889,-0.80802 1.9856656,2.4425261 0 0 1 -1.472461,0.80802 1.9856656,2.4425261 0 0 1 -1.472461,-0.80802 1.9856656,2.4425261 0 0 1 -1.47246,0.80802 1.9856656,2.4425261 0 0 1 -1.471889,-0.80802 1.9856656,2.4425261 0 0 1 -1.472461,0.80802 1.9856656,2.4425261 0 0 1 -1.4718884,-0.80802 1.9856656,2.4425261 0 0 1 -1.4730341,0.80802 1.9856656,2.4425261 0 0 1 -1.4718884,-0.80802 1.9856656,2.4425261 0 0 1 -1.4724612,0.80802 1.9856656,2.4425261 0 0 1 -1.4718882,-0.80802 1.9856656,2.4425261 0 0 1 -1.472461,0.80802 1.9856656,2.4425261 0 0 1 -1.5440789,-0.90994 z"
       id="path926"
       inkscape:connector-curvature="0" />
  </g>
</svg>
